<svg xmlns="http://www.w3.org/2000/svg" viewBox="0 0 338.56 516.34"><defs><style>.cls-1{fill:none;}.cls-1,.cls-2{stroke:#1d1d1b;stroke-miterlimit:10;}.cls-2{fill:#fff;}.cls-3{fill:#922c43;}</style></defs><title>LogoR</title><g id="Capa_2" data-name="Capa 2"><path class="cls-1" d="M445.18,425.77" transform="translate(-138.9 -157.05)"/><path class="cls-2" d="M394.26,561.08" transform="translate(-138.9 -157.05)"/></g><g id="Capa_3" data-name="Capa 3"><path class="cls-3" d="M477.46,326.33h0A169.28,169.28,0,0,0,308.18,157.05h0A169.28,169.28,0,0,0,138.9,326.33h0c0,.95,0,1.87,0,2.78q.09,8.47.72,17v0c12.16,163.07,168.54,327.3,168.54,327.3S219.72,503,309.37,492.23C419.29,479,478.75,398.75,477.42,329.59h0C477.45,328.51,477.46,327.42,477.46,326.33Zm-84.9,5.06a84.38,84.38,0,0,1-84.38,84.38h0a84.38,84.38,0,0,1-84.39-84.38v-3.78a84.38,84.38,0,0,1,84.39-84.38h0a84.38,84.38,0,0,1,84.38,84.38Z" transform="translate(-138.9 -157.05)"/></g><g id="Capa_4" data-name="Capa 4"><path class="cls-3" d="M463.45,415.87a177.86,177.86,0,0,1-155.27,91c19.61,3.93,29.16,15.51,33.87,21,23.29,27.35,22.46,75.7-23.81,128.37,31.45-31.55,59-66.92,92.55-124.71A640.83,640.83,0,0,0,463.45,415.87Z" transform="translate(-138.9 -157.05)"/></g></svg>