<?xml version="1.0" encoding="utf-8"?>
<!-- Generator: Adobe Illustrator 22.0.0, SVG Export Plug-In . SVG Version: 6.00 Build 0)  -->
<svg version="1.1" xmlns="http://www.w3.org/2000/svg" xmlns:xlink="http://www.w3.org/1999/xlink" x="0px" y="0px"
	 viewBox="0 0 595.3 841.9" style="enable-background:new 0 0 595.3 841.9;" xml:space="preserve">
<style type="text/css">
	.st0{fill:none;stroke:#000000;stroke-miterlimit:10;}
	.st1{fill:#FFFFFF;stroke:#000000;stroke-miterlimit:10;}
	.st2{fill:#FFFFFF;}
</style>
<g id="Capa_1">
</g>
<g id="Capa_2">
	<path class="st0" d="M445.2,425.8"/>
	<path class="st1" d="M394.3,561.1"/>
</g>
<g id="Capa_3">
	<path class="st2" d="M477.5,326.3L477.5,326.3c0-93.5-75.8-169.3-169.3-169.3h0c-93.5,0-169.3,75.8-169.3,169.3v0c0,1,0,1.9,0,2.8
		c0.1,5.6,0.3,11.3,0.7,17c0,0,0,0,0,0l0,0c12.2,163.1,168.5,327.3,168.5,327.3s-88.5-170.4,1.2-181.2
		c109.9-13.2,169.4-93.5,168.1-162.6l0,0C477.4,328.5,477.5,327.4,477.5,326.3z M392.6,331.4c0,46.6-37.8,84.4-84.4,84.4h0
		c-46.6,0-84.4-37.8-84.4-84.4v-3.8c0-46.6,37.8-84.4,84.4-84.4h0c46.6,0,84.4,37.8,84.4,84.4V331.4z"/>
</g>
<g id="Capa_4">
	<path class="st2" d="M463.5,415.9c-30.3,54.3-88.7,91-155.3,91c19.6,3.9,29.2,15.5,33.9,21c23.3,27.4,22.5,75.7-23.8,128.4
		c31.4-31.6,59-66.9,92.6-124.7C435.3,489.3,452,449.6,463.5,415.9z"/>
</g>
</svg>
